@startuml
!theme vibrant
skinparam classFontSize 14
!define LIGHTORANGE
skinparam componentStyle uml2
skinparam wrapMessageWidth 1000
skinparam wrapWidth 1000
' skinparam ArrowColor #Maroon
' Remove shadows
skinparam shadowing false
'skinparam linetype polyline
skinparam ArrowMessageAlignment left
top to bottom direction


class "<b>Fragment</b> (mh:Fragment)" as mh_Fragment [[#mh%3AFragment]]
class "<b>Record</b> (mh:Record)" as mh_Record [[#mh%3ARecord]]
class "<b>MediaFragment</b> (ebucore:MediaFragment)" as ebucore_MediaFragment [[#ebucore%3AMediaFragment]]
class "<b>Newspaper</b> (schema:Newspaper)" as schema_Newspaper [[#schema%3ANewspaper]]
class "<b>Brand</b> (schema:Brand)" as schema_Brand [[#schema%3ABrand]]
class "<b>Activité</b> (prov:Activity)" as prov_Activity [[#prov%3AActivity]]
class "<b>Adresse postale</b> (schema:PostalAddress)" as schema_PostalAddress [[#schema%3APostalAddress]]
class "<b>Point de contact</b> (schema:ContactPoint)" as schema_ContactPoint [[#schema%3AContactPoint]]
class "<b>Annotation</b> (ebucore:Annotation)" as ebucore_Annotation [[#ebucore%3AAnnotation]]
class "<b>Annotation texte</b> (ebucore:TextAnnotation)" as ebucore_TextAnnotation [[#ebucore%3ATextAnnotation]]
class "<b>Annotation</b> (ebucore:Annotation)" as ebucore_Annotation [[#ebucore%3AAnnotation]]
class "<b>Audio</b> (haDes:Audio)" as haDes_Audio [[#haDes%3AAudio]]
class "<b>Entité intellectuelle</b> (premis:IntellectualEntity)" as premis_IntellectualEntity [[#premis%3AIntellectualEntity]]
class "<b>Bobine audio</b> (haDes:AudioReel)" as haDes_AudioReel [[#haDes%3AAudioReel]]
class "<b>Bobine d'image</b> (haDes:ImageReel)" as haDes_ImageReel [[#haDes%3AImageReel]]
class "<b>Chapitre DVD</b> (haDes:DVDChapter)" as haDes_DVDChapter [[#haDes%3ADVDChapter]]
class "<b>Entité intellectuelle</b> (premis:IntellectualEntity)" as premis_IntellectualEntity [[#premis%3AIntellectualEntity]]
class "<b>Chose</b> (schema:Thing)" as schema_Thing [[#schema%3AThing]]
class "<b>Collection</b> (schema:Collection)" as schema_Collection [[#schema%3ACollection]]
class "<b>Travail créatif</b> (schema:CreativeWork)" as schema_CreativeWork [[#schema%3ACreativeWork]]
class "<b>Collection</b> (skos:Collection)" as skos_Collection [[#skos%3ACollection]]
class "<b>Collection ordonnée</b> (skos:OrderedCollection)" as skos_OrderedCollection [[#skos%3AOrderedCollection]]
class "<b>Collection</b> (skos:Collection)" as skos_Collection [[#skos%3ACollection]]
class "<b>Composant d'archive</b> (schema:ArchiveComponent)" as schema_ArchiveComponent [[#schema%3AArchiveComponent]]
class "<b>Travail créatif</b> (schema:CreativeWork)" as schema_CreativeWork [[#schema%3ACreativeWork]]
class "<b>Concept</b> (skos:Concept)" as skos_Concept [[#skos%3AConcept]]
class "<b>Consomatteur de services</b> (haOrg:ServiceConsumer)" as haOrg_ServiceConsumer [[#haOrg%3AServiceConsumer]]
class "<b>Organisation</b> (org:Organization)" as org_Organization [[#org%3AOrganization]]
class "<b>DVD</b> (haDes:DVD)" as haDes_DVD [[#haDes%3ADVD]]
class "<b>Entité intellectuelle</b> (premis:IntellectualEntity)" as premis_IntellectualEntity [[#premis%3AIntellectualEntity]]
class "<b>Edition de journal</b> (haDes:NewspaperIssue)" as haDes_NewspaperIssue [[#haDes%3ANewspaperIssue]]
class "<b>Entité intellectuelle</b> (premis:IntellectualEntity)" as premis_IntellectualEntity [[#premis%3AIntellectualEntity]]
class "<b>Emplacement de stockage</b> (premis:StorageLocation)" as premis_StorageLocation [[#premis%3AStorageLocation]]
class "<b>Entité intellectuelle</b> (premis:IntellectualEntity)" as premis_IntellectualEntity [[#premis%3AIntellectualEntity]]
class "<b>Objet</b> (premis:Object)" as premis_Object [[#premis%3AObject]]
class "<b>Fichier</b> (premis:File)" as premis_File [[#premis%3AFile]]
class "<b>Objet</b> (premis:Object)" as premis_Object [[#premis%3AObject]]
class "<b>Film</b> (haDes:Film)" as haDes_Film [[#haDes%3AFilm]]
class "<b>Entité intellectuelle</b> (premis:IntellectualEntity)" as premis_IntellectualEntity [[#premis%3AIntellectualEntity]]
class "<b>Film muet</b> (haDes:SilentFilm)" as haDes_SilentFilm [[#haDes%3ASilentFilm]]
class "<b>Film</b> (haDes:Film)" as haDes_Film [[#haDes%3AFilm]]
class "<b>Film sonore</b> (haDes:SoundFilm)" as haDes_SoundFilm [[#haDes%3ASoundFilm]]
class "<b>Film</b> (haDes:Film)" as haDes_Film [[#haDes%3AFilm]]
class "<b>Fixité</b> (premis:Fixity)" as premis_Fixity [[#premis%3AFixity]]
class "<b>Format de fichier</b> (dct:FileFormat)" as dct_FileFormat [[#dct%3AFileFormat]]
class "<b>Fournisseur de services</b> (haOrg:ServiceProvider)" as haOrg_ServiceProvider [[#haOrg%3AServiceProvider]]
class "<b>Organisation</b> (org:Organization)" as org_Organization [[#org%3AOrganization]]
class "<b>Identifiant local</b> (haObj:LocalIdentifier)" as haObj_LocalIdentifier [[#haObj%3ALocalIdentifier]]
class "<b>Concept</b> (skos:Concept)" as skos_Concept [[#skos%3AConcept]]
class "<b>Image</b> (haDes:Image)" as haDes_Image [[#haDes%3AImage]]
class "<b>Entité intellectuelle</b> (premis:IntellectualEntity)" as premis_IntellectualEntity [[#premis%3AIntellectualEntity]]
class "<b>Lieu</b> (schema:Place)" as schema_Place [[#schema%3APlace]]
class "<b>Chose</b> (schema:Thing)" as schema_Thing [[#schema%3AThing]]
class "<b>Liste</b> (rdf:List)" as rdf_List [[#rdf%3AList]]
class "<b>Logiciel acteur</b> (premis:SoftwareAgent)" as premis_SoftwareAgent [[#premis%3ASoftwareAgent]]
class "<b>Acteur</b> (premis:Agent)" as premis_Agent [[#premis%3AAgent]]
class "<b>Logo</b> (haOrg:Logo)" as haOrg_Logo [[#haOrg%3ALogo]]
class "<b>Légende fermée</b> (ebucore:ClosedCaptions)" as ebucore_ClosedCaptions [[#ebucore%3AClosedCaptions]]
class "<b>Sous-titrage</b> (ebucore:Captioning)" as ebucore_Captioning [[#ebucore%3ACaptioning]]
class "<b>Matériel acteur</b> (premis:HardwareAgent)" as premis_HardwareAgent [[#premis%3AHardwareAgent]]
class "<b>Acteur</b> (premis:Agent)" as premis_Agent [[#premis%3AAgent]]
class "<b>Objet</b> (premis:Object)" as premis_Object [[#premis%3AObject]]
class "<b>Entité</b> (prov:Entity)" as prov_Entity [[#prov%3AEntity]]
class "<b>Organisation</b> (org:Organization)" as org_Organization [[#org%3AOrganization]]
class "<b>Page d'édition de journal</b> (haDes:NewspaperIssuePage)" as haDes_NewspaperIssuePage [[#haDes%3ANewspaperIssuePage]]
class "<b>Entité intellectuelle</b> (premis:IntellectualEntity)" as premis_IntellectualEntity [[#premis%3AIntellectualEntity]]
class "<b>Partenaire de contenus</b> (haOrg:ContentPartner)" as haOrg_ContentPartner [[#haOrg%3AContentPartner]]
class "<b>Organisation</b> (org:Organization)" as org_Organization [[#org%3AOrganization]]
class "<b>Partenaire de digitalisation</b> (haOrg:DigitizationPartner)" as haOrg_DigitizationPartner [[#haOrg%3ADigitizationPartner]]
class "<b>Fournisseur de services</b> (haOrg:ServiceProvider)" as haOrg_ServiceProvider [[#haOrg%3AServiceProvider]]
class "<b>Partenaire de projet</b> (haOrg:ProjectPartner)" as haOrg_ProjectPartner [[#haOrg%3AProjectPartner]]
class "<b>Organisation</b> (org:Organization)" as org_Organization [[#org%3AOrganization]]
class "<b>Partenaire éducatif</b> (haOrg:EducationalPartner)" as haOrg_EducationalPartner [[#haOrg%3AEducationalPartner]]
class "<b>Organisation</b> (org:Organization)" as org_Organization [[#org%3AOrganization]]
class "<b>Pays</b> (schema:Country)" as schema_Country [[#schema%3ACountry]]
class "<b>Personne</b> (schema:Person)" as schema_Person [[#schema%3APerson]]
class "<b>Chose</b> (schema:Thing)" as schema_Thing [[#schema%3AThing]]
class "<b>Point de contact</b> (schema:ContactPoint)" as schema_ContactPoint [[#schema%3AContactPoint]]
class "<b>Porteur physique</b> (haObj:PhysicalCarrier)" as haObj_PhysicalCarrier [[#haObj%3APhysicalCarrier]]
class "<b>Emplacement de stockage</b> (premis:StorageLocation)" as premis_StorageLocation [[#premis%3AStorageLocation]]
class "<b>Poste</b> (org:Post)" as org_Post [[#org%3APost]]
class "<b>Représentation</b> (premis:Representation)" as premis_Representation [[#premis%3ARepresentation]]
class "<b>Objet</b> (premis:Object)" as premis_Object [[#premis%3AObject]]
class "<b>Représentation de porteur</b> (haObj:CarrierRepresentation)" as haObj_CarrierRepresentation [[#haObj%3ACarrierRepresentation]]
class "<b>Représentation</b> (premis:Representation)" as premis_Representation [[#premis%3ARepresentation]]
class "<b>Représentation digitale</b> (haObj:DigitalRepresentation)" as haObj_DigitalRepresentation [[#haObj%3ADigitalRepresentation]]
class "<b>Représentation</b> (premis:Representation)" as premis_Representation [[#premis%3ARepresentation]]
class "<b>Représentation fragment</b> (haObj:FragmentRepresentation)" as haObj_FragmentRepresentation [[#haObj%3AFragmentRepresentation]]
class "<b>Représentation digitale</b> (haObj:DigitalRepresentation)" as haObj_DigitalRepresentation [[#haObj%3ADigitalRepresentation]]
class "<b>Rôle</b> (org:Role)" as org_Role [[#org%3ARole]]
class "<b>Concept</b> (skos:Concept)" as skos_Concept [[#skos%3AConcept]]
class "<b>Rôle</b> (schema:Role)" as schema_Role [[#schema%3ARole]]
class "<b>Chose</b> (schema:Thing)" as schema_Thing [[#schema%3AThing]]
class "<b>Schéma de concepts</b> (skos:ConceptScheme)" as skos_ConceptScheme [[#skos%3AConceptScheme]]
class "<b>Site</b> (org:Site)" as org_Site [[#org%3ASite]]
class "<b>Sous-titres ouverts</b> (ebucore:OpenCaptions)" as ebucore_OpenCaptions [[#ebucore%3AOpenCaptions]]
class "<b>Sous-titrage</b> (ebucore:Captioning)" as ebucore_Captioning [[#ebucore%3ACaptioning]]
class "<b>Statut de résultat</b> (premis:OutcomeStatus)" as premis_OutcomeStatus [[#premis%3AOutcomeStatus]]
class "<b>Support de stockage</b> (premis:StorageMedium)" as premis_StorageMedium [[#premis%3AStorageMedium]]
class "<b>Série du travail créatif</b> (schema:CreativeWorkSeries)" as schema_CreativeWorkSeries [[#schema%3ACreativeWorkSeries]]
class "<b>Travail créatif</b> (schema:CreativeWork)" as schema_CreativeWork [[#schema%3ACreativeWork]]
class "<b>Type de organisation</b> (haOrg:OrganizationType)" as haOrg_OrganizationType [[#haOrg%3AOrganizationType]]
class "<b>Concept</b> (skos:Concept)" as skos_Concept [[#skos%3AConcept]]
class "<b>Unité opérationnelle</b> (org:OrganizationalUnit)" as org_OrganizationalUnit [[#org%3AOrganizationalUnit]]
class "<b>Organisation</b> (org:Organization)" as org_Organization [[#org%3AOrganization]]
class "<b>Valeur quantitative</b> (schema:QuantitativeValue)" as schema_QuantitativeValue [[#schema%3AQuantitativeValue]]
class "<b>Chose</b> (schema:Thing)" as schema_Thing [[#schema%3AThing]]
class "<b>Vidéo</b> (haDes:Video)" as haDes_Video [[#haDes%3AVideo]]
class "<b>Entité intellectuelle</b> (premis:IntellectualEntity)" as premis_IntellectualEntity [[#premis%3AIntellectualEntity]]
class "<b>Épisode</b> (schema:Episode)" as schema_Episode [[#schema%3AEpisode]]
class "<b>Travail créatif</b> (schema:CreativeWork)" as schema_CreativeWork [[#schema%3ACreativeWork]]
class "<b>Étiquette</b> (skosxl:Label)" as skosxl_Label [[#skosxl%3ALabel]]
class "<b>Événement</b> (premis:Event)" as premis_Event [[#premis%3AEvent]]
class "<b>Activité</b> (prov:Activity)" as prov_Activity [[#prov%3AActivity]]


mh_Fragment : a identifiant du fragment : <i>xsd:string</i> [1..1]
mh_Fragment : date de création : <i>xsd:dateTime</i> [1..1]
mh_Fragment : date modifiée : <i>xsd:dateTime</i> [1..1]
mh_Fragment : date supprimée : <i>xsd:dateTime</i> [0..1]
mh_Fragment --> mh_Record :a record [1..1]  > 




mh_Record : a identifiant d'enregistrement : <i>xsd:string</i> [1..1]



ebucore_MediaFragment : délimiteur de région (axe des x) : <i>xsd:integer</i> [0..1]
ebucore_MediaFragment : délimiteur de région (axe des y) : <i>xsd:integer</i> [0..1]
ebucore_MediaFragment : hauteur : <i>xsd:integer</i> [0..1]
ebucore_MediaFragment : heure de départ : <i>xsd:time</i> [0..1]
ebucore_MediaFragment : heure de fin : <i>xsd:time</i> [0..1]
ebucore_MediaFragment : largeur : <i>xsd:integer</i> [0..1]
ebucore_MediaFragment --> premis_File :est fragment des médias de [0..*]  > 




schema_Newspaper : abraham identifier : <i>xsd:string</i> [1..1]
schema_Newspaper : date de début : <i>xsd:dateTime</i> [0..1]
schema_Newspaper : date de fin : <i>xsd:dateTime</i> [0..1]
schema_Newspaper : nom : <i>rdf:langString</i> [1..1]
schema_Newspaper : nom alternatif : <i>rdf:langString</i> [0..*]

schema_Newspaper --> schema_Newspaper :compléter [0..1]  \lprécédé par [0..1]  \lsuccédé par [0..1]  \lsupplément [0..1]  > 
schema_Newspaper --> schema_Place :numéro de page [0..1]  > 
schema_Newspaper --> schema_Role :éditeur [0..1]  > 




schema_Brand : nom : <i>rdf:langString</i> [1..1]



prov_Activity : a date de début : <i>xsd:dateTime</i> [1..1]
prov_Activity : a date de fin : <i>xsd:dateTime</i> [1..1]
prov_Activity : a généré : <i>IRI</i> [0..1]

prov_Activity --> org_Organization :a été associé à [1..1]  > 
prov_Activity --> premis_HardwareAgent :a été associé à [1..1]  > 
prov_Activity --> premis_SoftwareAgent :a été associé à [1..1]  > 
prov_Activity --> schema_Person :a été associé à [1..1]  > 


schema_PostalAddress --|> schema_ContactPoint #blue;line.dotted;text:blue

schema_PostalAddress : l'adresse : <i>xsd:string</i> [0..1]
schema_PostalAddress : le code postal : <i>xsd:string</i> [0..1]
schema_PostalAddress : le numéro de boîte postale : <i>xsd:string</i> [0..1]
schema_PostalAddress : pays : <i>xsd:string</i> [0..1]
schema_PostalAddress : provincie : <i>xsd:string</i> [0..1]
schema_PostalAddress : ville : <i>xsd:string</i> [0..1]
schema_PostalAddress --> schema_Country :pays [0..1]  > 



ebucore_Annotation : confiance en annotation : <i>xsd:integer</i> [1..1]
ebucore_Annotation : sujet d'annotation : <i>IRI</i> [1..1]
ebucore_Annotation : sujet d'annotation person : <i>IRI</i> [0..1]

ebucore_Annotation --> ebucore_MediaFragment :annote [1..*]  > 
ebucore_Annotation --> premis_File :cible d'annotation [1..1]  > 
ebucore_Annotation --> skos_Concept :type d'annotation [0..1]  > 


ebucore_TextAnnotation --|> ebucore_Annotation #blue;line.dotted;text:blue


haDes_Audio --|> premis_IntellectualEntity #blue;line.dotted;text:blue





haDes_ImageReel --> ebucore_OpenCaptions :a des sous-titres (intégrés) [0..*]  > 
haDes_ImageReel --> skos_Concept :type de coloration [0..1]  > 

haDes_DVDChapter --|> premis_IntellectualEntity #blue;line.dotted;text:blue

haDes_DVDChapter : Numéro de chapitre DVD : <i>xsd:nonNegativeInteger</i> [1..1]
haDes_DVDChapter --> haDes_DVD :fait partie de [1..1]  > 



schema_Thing : description : <i>rdf:langString</i> [0..*]
schema_Thing : nom : <i>rdf:langString</i> [1..*]


schema_Collection --|> schema_CreativeWork #blue;line.dotted;text:blue

schema_Collection : description : <i>rdf:langString</i> [0..*]
schema_Collection : identifier : <i>xsd:string</i> [0..1]
schema_Collection : nom : <i>rdf:langString</i> [1..*]
schema_Collection : nombre d'éléments : <i>xsd:integer</i> [0..*]
schema_Collection --> haObj_PhysicalCarrier :fait partie de [0..*]  > 
schema_Collection --> premis_IntellectualEntity :fait partie de [0..*]  > 





skos_Collection : définition : <i>rdf:langString</i> [0..*]
skos_Collection : exemple : <i>rdf:langString</i> [0..*]
skos_Collection : notation : <i>xsd:string</i> [0..*]
skos_Collection : note : <i>rdf:langString</i> [0..*]
skos_Collection : note d'historique : <i>rdf:langString</i> [0..*]
skos_Collection : note de champ : <i>rdf:langString</i> [0..*]
skos_Collection : note de changement : <i>rdf:langString</i> [0..*]
skos_Collection : note éditoriale : <i>rdf:langString</i> [0..*]
skos_Collection : étiquette alternative : <i>rdf:langString</i> [0..*]
skos_Collection : étiquette cachée : <i>rdf:langString</i> [0..*]
skos_Collection : étiquette préférée : <i>rdf:langString</i> [1..*]

skos_Collection --> skos_Collection :membre [0..*]  > 
skos_Collection --> skos_Concept :membre [0..*]  > 


skos_OrderedCollection --|> skos_Collection #blue;line.dotted;text:blue

skos_OrderedCollection : définition : <i>rdf:langString</i> [0..*]
skos_OrderedCollection : exemple : <i>rdf:langString</i> [0..*]
skos_OrderedCollection : notation : <i>xsd:string</i> [0..*]
skos_OrderedCollection : note : <i>rdf:langString</i> [0..*]
skos_OrderedCollection : note d'historique : <i>rdf:langString</i> [0..*]
skos_OrderedCollection : note de champ : <i>rdf:langString</i> [0..*]
skos_OrderedCollection : note de changement : <i>rdf:langString</i> [0..*]
skos_OrderedCollection : note éditoriale : <i>rdf:langString</i> [0..*]
skos_OrderedCollection : étiquette alternative : <i>rdf:langString</i> [0..*]
skos_OrderedCollection : étiquette cachée : <i>rdf:langString</i> [0..*]
skos_OrderedCollection : étiquette préférée : <i>rdf:langString</i> [1..*]



schema_ArchiveComponent --|> schema_CreativeWork #blue;line.dotted;text:blue

schema_ArchiveComponent : description : <i>rdf:langString</i> [0..*]
schema_ArchiveComponent : nom : <i>rdf:langString</i> [1..*]
schema_ArchiveComponent --> premis_IntellectualEntity :fait partie de [0..*]  > 

schema_ArchiveComponent --> schema_ArchiveComponent :est partie de [0..*]  \lfait partie de [0..*]  > 


skos_Concept : définition : <i>rdf:langString</i> [1..*]
skos_Concept : exemple : <i>rdf:langString</i> [0..*]
skos_Concept : notation : <i>xsd:string</i> [0..*]
skos_Concept : note : <i>rdf:langString</i> [0..*]
skos_Concept : note d'historique : <i>rdf:langString</i> [0..*]
skos_Concept : note de champ : <i>rdf:langString</i> [0..*]
skos_Concept : note de changement : <i>rdf:langString</i> [0..*]
skos_Concept : note éditoriale : <i>rdf:langString</i> [0..*]
skos_Concept : étiquette alternative : <i>rdf:langString</i> [0..*]
skos_Concept : étiquette cachée : <i>rdf:langString</i> [0..*]
skos_Concept : étiquette préférée : <i>rdf:langString</i> [1..*]

skos_Concept --> skos_Concept :a une priorité inférieure à [0..*]  \la une priorité plus grande que [0..*]  \lcorrespondance exacte [0..*]  \lcorrespondance large [0..*]  \lcorrespondance liée [0..*]  \lcorrespondance proche [0..*]  \lcorrespondance étroite [0..*]  \llié [0..*]  \lplus large [0..*]  \lplus large transitive [0..*]  \lplus étroit [0..*]  \lplus étroit transitive [0..*]  \lrelation de correspondance [0..*]  \lrelation sémantique [0..*]  > 
skos_Concept --> skos_ConceptScheme :concept supérieur de [0..*]  \ldans le schéma [1..*]  > 
skos_Concept --> skosxl_Label :label préféré [0..1]  > 


haOrg_ServiceConsumer --|> org_Organization #blue;line.dotted;text:blue

haOrg_ServiceConsumer : possède un identifiant : <i>xsd:string</i> [1..1]


haDes_DVD --|> premis_IntellectualEntity #blue;line.dotted;text:blue

haDes_DVD --> haDes_DVDChapter :a une partie [0..*]  > 

haDes_NewspaperIssue --|> premis_IntellectualEntity #blue;line.dotted;text:blue

haDes_NewspaperIssue : nombre de pages : <i>xsd:nonNegativeInteger</i> [0..1]
haDes_NewspaperIssue : numéro de l'édition : <i>xsd:string</i> [0..1]
haDes_NewspaperIssue --> schema_Newspaper :fait partie de [0..1]  > 
haDes_NewspaperIssue --> skos_Concept :fréquence d'émission [0..1]  \lméthode de production [0..1]  \ltype de publication [0..1]  > 




premis_StorageLocation : chemin du fichier : <i>xsd:string</i> [0..1]
premis_StorageLocation --> premis_StorageMedium :milieu de stockage [0..*]  > 


premis_IntellectualEntity --|> premis_Object #blue;line.dotted;text:blue

premis_IntellectualEntity : année de copyright : <i>xsd:integer</i> [0..*]
premis_IntellectualEntity : avis de copyright : <i>xsd:string</i> [0..*]
premis_IntellectualEntity : date de création : <i>edtf:EDTF-level0 | edtf:EDTF-level1 | edtf:EDTF-level2</i> [1..1]
premis_IntellectualEntity : date de publication : <i>edtf:EDTF-level0 | edtf:EDTF-level1 | edtf:EDTF-level2</i> [0..1]
premis_IntellectualEntity : description : <i>rdf:langString</i> [0..*]
premis_IntellectualEntity : disponible le : <i>xsd:dateTime</i> [0..*]
premis_IntellectualEntity : en langue : <i>xsd:string</i> [0..*]
premis_IntellectualEntity : format : <i>xsd:string</i> [1..1]
premis_IntellectualEntity : forme d'art : <i>rdf:langString</i> [0..*]
premis_IntellectualEntity : genre : <i>rdf:langString</i> [0..*]
premis_IntellectualEntity : identifier : <i>xsd:string</i> [1..1]
premis_IntellectualEntity : informations sur les droits : <i>rdf:langString</i> [0..*]
premis_IntellectualEntity : les acteurs : <i>xsd:string</i> [0..1]
premis_IntellectualEntity : mots-clés : <i>rdf:langString</i> [0..*]
premis_IntellectualEntity : moyen d'art : <i>rdf:langString</i> [0..*]
premis_IntellectualEntity : nom : <i>rdf:langString</i> [1..*]
premis_IntellectualEntity : nom alternatif : <i>rdf:langString</i> [0..*]
premis_IntellectualEntity : résumé : <i>rdf:langString</i> [0..*]
premis_IntellectualEntity : sur : <i>IRI</i> [0..*]
premis_IntellectualEntity : synopsis : <i>xsd:string</i> [0..1]
premis_IntellectualEntity : temporelle : <i>rdf:langString</i> [0..*]
premis_IntellectualEntity : texte de crédit : <i>rdf:langString</i> [0..*]
premis_IntellectualEntity : type d'objet : <i>xsd:string</i> [0..1]




premis_IntellectualEntity --> haObj_CarrierRepresentation :est copie sur porteur [0..1]  > 
premis_IntellectualEntity --> haObj_DigitalRepresentation :a copie d'accès [0..*]  \la copie de IIIF [0..*]  \la copie de transcription [0..*]  \la maître [0..*]  \la mezzanine [0..*]  > 
premis_IntellectualEntity --> haObj_FragmentRepresentation :a fragment [0..*]  > 
premis_IntellectualEntity --> haObj_LocalIdentifier :a identifiant principal [0..*]  \lidentificateur local [0..*]  > 
premis_IntellectualEntity --> haOrg_ContentPartner :mainteneur/responsable [1..1]  > 
premis_IntellectualEntity --> mh_Fragment :était dérivé de [1..1]  > 
premis_IntellectualEntity --> org_Organization :détenteur des droits d'auteur [0..*]  > 
premis_IntellectualEntity --> premis_IntellectualEntity :a partie [0..*]  \lest partie de [0..*]  \ll'entité intellectuelle suivante dans l'ordre [0..1]  > 
premis_IntellectualEntity --> premis_Representation :est représenté par [1..*]  > 

premis_IntellectualEntity --> schema_ArchiveComponent :est partie de [0..*]  > 
premis_IntellectualEntity --> schema_Collection :est partie de [0..*]  > 
premis_IntellectualEntity --> schema_CreativeWorkSeries :est partie de [0..*]  > 
premis_IntellectualEntity --> schema_Episode :est partie de [0..*]  > 
premis_IntellectualEntity --> schema_Person :détenteur des droits d'auteur [0..*]  > 
premis_IntellectualEntity --> schema_Place :spatial [0..*]  > 
premis_IntellectualEntity --> schema_QuantitativeValue :hauteur [0..1]  \llargeur [0..1]  \lprofondeur [0..1]  > 
premis_IntellectualEntity --> schema_Role :contributeur [0..*]  \lcréateur [0..*]  \léditeur [0..*]  > 
premis_IntellectualEntity --> schema_Thing :détenteur des droits d'auteur [0..*]  \lmentionne [0..*]  > 
premis_IntellectualEntity --> skos_Concept :licence [0..*]  > 




premis_File --|> premis_Object #blue;line.dotted;text:blue

premis_File : a une taille (du fichier) : <i>xsd:nonNegativeInteger</i> [1..1]
premis_File : créé le : <i>edtf:EDTF-level0 | edtf:EDTF-level1 | edtf:EDTF-level2</i> [1..1]
premis_File : description : <i>rdf:langString</i> [0..*]
premis_File : durée : <i>xsd:duration</i> [0..1]
premis_File : identifier : <i>xsd:string</i> [0..1]
premis_File : image miniature : <i>IRI</i> [0..1]
premis_File : mime type : <i>xsd:string</i> [1..1]
premis_File : nom : <i>rdf:langString</i> [1..*]
premis_File : porte le nom d'origine : <i>xsd:string</i> [0..1]

premis_File --> dct_FileFormat :format [0..1]  > 
premis_File --> ebucore_MediaFragment :a un fragment multimédia [0..*]  > 



premis_File --> haObj_DigitalRepresentation :est inclus dans [0..*]  > 
premis_File --> haObj_FragmentRepresentation :a le fragment des médias [0..*]  > 
premis_File --> mh_Fragment :était dérivé de [1..1]  > 
premis_File --> premis_File :document [0..*]  \lfichier suivant dans l'ordre [0..1]  \lremplace [0..*]  > 
premis_File --> premis_Fixity :fixity [0..1]  > 
premis_File --> premis_StorageLocation :stocké à [1..1]  > 

premis_File --> schema_QuantitativeValue :hauteur [0..1]  \llargeur [0..1]  > 




haDes_Film --|> premis_IntellectualEntity #blue;line.dotted;text:blue

haDes_Film --> haObj_CarrierRepresentation :est porteur du copie [1..1]  > 

haDes_SilentFilm --|> haDes_Film #blue;line.dotted;text:blue


haDes_SoundFilm --|> haDes_Film #blue;line.dotted;text:blue



premis_Fixity : créateur de somme de contrôle : <i>xsd:string</i> [0..*]
premis_Fixity : vérification de la fixation : <i>xsd:string</i> [1..1]




haOrg_ServiceProvider --|> org_Organization #blue;line.dotted;text:blue

haOrg_ServiceProvider : possède un identifiant : <i>xsd:string</i> [1..1]


haObj_LocalIdentifier --|> skos_Concept #blue;line.dotted;text:blue

haObj_LocalIdentifier : valeur : <i>xsd:string</i> [1..1]


haDes_Image --|> premis_IntellectualEntity #blue;line.dotted;text:blue


schema_Place --|> schema_Thing #blue;line.dotted;text:blue

schema_Place : description : <i>rdf:langString</i> [0..*]
schema_Place : nom : <i>rdf:langString</i> [1..*]

schema_Place --> schema_Place :fait partie de [0..*]  > 


rdf_List --> skos_Collection :None [0..*]  > 
rdf_List --> skos_Concept :None [0..*]  > 

premis_SoftwareAgent --|> premis_Agent #blue;line.dotted;text:blue

premis_SoftwareAgent : modèle : <i>xsd:string</i> [0..1]
premis_SoftwareAgent : nom : <i>rdf:langString</i> [1..1]
premis_SoftwareAgent : numéro de série : <i>xsd:string</i> [0..1]
premis_SoftwareAgent : version : <i>xsd:string</i> [0..1]

premis_SoftwareAgent --> schema_Brand :marque [0..1]  > 




ebucore_ClosedCaptions --|> ebucore_Captioning #blue;line.dotted;text:blue


premis_HardwareAgent --|> premis_Agent #blue;line.dotted;text:blue

premis_HardwareAgent : modèle : <i>xsd:string</i> [0..1]
premis_HardwareAgent : nom : <i>rdf:langString</i> [1..1]
premis_HardwareAgent : numéro de série : <i>xsd:string</i> [0..1]
premis_HardwareAgent : version : <i>xsd:string</i> [0..1]

premis_HardwareAgent --> schema_Brand :marque [0..1]  > 


premis_Object --|> prov_Entity #blue;line.dotted;text:blue

premis_Object --> premis_Event :généré par [0..1]  > 
premis_Object --> premis_Object :relation [0..*]  > 


org_Organization : description : <i>rdf:langString</i> [0..*]
org_Organization : label alternatif : <i>rdf:langString</i> [0..*]
org_Organization : label préféré : <i>rdf:langString</i> [1..*]
org_Organization : nom du locataire : <i>xsd:string</i> [0..*]
org_Organization : page d'accueil : <i>IRI</i> [0..1]
org_Organization : possède un identifiant : <i>xsd:string</i> [1..1]
org_Organization : secteur : <i>xsd:string</i> [0..1]

org_Organization --> haOrg_Logo :logo [0..*]  \llogo principal [0..1]  > 
org_Organization --> haOrg_OrganizationType :classification [0..*]  > 
org_Organization --> org_OrganizationalUnit :possède une Unité [0..*]  > 
org_Organization --> org_Post :possède un poste [0..*]  > 
org_Organization --> org_Site :a un site [0..*]  \la un site principal [0..1]  > 

org_Organization --> schema_ContactPoint :point de contact [0..*]  > 
org_Organization --> schema_Person :a gestionnaire de comptes [0..1]  > 


haDes_NewspaperIssuePage --|> premis_IntellectualEntity #blue;line.dotted;text:blue

haDes_NewspaperIssuePage : numéro de page : <i>xsd:nonNegativeInteger</i> [0..1]
haDes_NewspaperIssuePage --> haDes_NewspaperIssue :fait partie de [1..1]  > 


haOrg_ContentPartner --|> org_Organization #blue;line.dotted;text:blue

haOrg_ContentPartner : formulaire de demande : <i>xsd:string</i> [0..*]
haOrg_ContentPartner : possède un identifiant : <i>xsd:string</i> [1..1]
haOrg_ContentPartner --> schema_Person :a gestionnaire de comptes [1..1]  > 
haOrg_ContentPartner --> skos_Concept :préfère [0..*]  > 


haOrg_DigitizationPartner --|> haOrg_ServiceProvider #blue;line.dotted;text:blue

haOrg_DigitizationPartner : possède un identifiant : <i>xsd:string</i> [1..1]


haOrg_ProjectPartner --|> org_Organization #blue;line.dotted;text:blue

haOrg_ProjectPartner : possède un identifiant : <i>xsd:string</i> [1..1]


haOrg_EducationalPartner --|> org_Organization #blue;line.dotted;text:blue

haOrg_EducationalPartner : possède un identifiant : <i>xsd:string</i> [1..1]
haOrg_EducationalPartner --> schema_Person :a gestionnaire de comptes [1..1]  > 



schema_Country : nom : <i>xsd:string</i> [1..1]


schema_Person --|> schema_Thing #blue;line.dotted;text:blue

schema_Person : Lieu de naissance : <i>xsd:string</i> [0..1]
schema_Person : date de décès : <i>edtf:EDTF-level1</i> [0..1]
schema_Person : date de naissance : <i>edtf:EDTF-level1</i> [0..1]
schema_Person : email : <i>xsd:string</i> [0..*]
schema_Person : nom : <i>rdf:langString</i> [1..*]
schema_Person : nom de famille : <i>xsd:string</i> [1..1]
schema_Person : place de décès : <i>xsd:string</i> [0..1]
schema_Person : prénom : <i>xsd:string</i> [1..1]
schema_Person : téléphone : <i>xsd:string</i> [0..*]

schema_Person --> org_Organization :est le Gestionnaire de Comptes de [0..*]  > 
schema_Person --> org_Post :occupe [0..*]  > 




schema_ContactPoint : e-mail : <i>xsd:string</i> [0..*]
schema_ContactPoint : numéro de téléphone : <i>xsd:string</i> [0..*]
schema_ContactPoint : type de contact : <i>xsd:string</i> [1..1]


haObj_PhysicalCarrier --|> premis_StorageLocation #blue;line.dotted;text:blue

haObj_PhysicalCarrier : description : <i>rdf:langString</i> [0..*]
haObj_PhysicalCarrier : identifier : <i>xsd:string</i> [1..1]
haObj_PhysicalCarrier : matériau : <i>xsd:string</i> [0..1]
haObj_PhysicalCarrier : nom : <i>rdf:langString</i> [1..*]
haObj_PhysicalCarrier : réduction du bruit audio : <i>xsd:string</i> [0..1]
haObj_PhysicalCarrier : étendue matérielle : <i>xsd:string</i> [0..1]
haObj_PhysicalCarrier --> premis_StorageMedium :milieu de stockage [1..1]  > 

haObj_PhysicalCarrier --> schema_Brand :marque [0..1]  > 
haObj_PhysicalCarrier --> schema_QuantitativeValue :hauteur [0..1]  \llargeur [0..1]  \lprofondeur [0..1]  > 
haObj_PhysicalCarrier --> skos_Concept :iec-60094 type [0..1]  \lproblème de préservation [0..*]  \lvitesse d'enregistrement audio [0..1]  > 



org_Post --> org_Organization :poste chez [1..*]  > 
org_Post --> org_Role :rôle [1..*]  > 

premis_Representation --|> premis_Object #blue;line.dotted;text:blue

premis_Representation : description : <i>rdf:langString</i> [0..*]
premis_Representation : identifier : <i>xsd:string</i> [0..1]
premis_Representation : nom : <i>rdf:langString</i> [1..*]
premis_Representation --> mh_Fragment :était dérivé de [1..1]  > 
premis_Representation --> premis_IntellectualEntity :représente [1..1]  > 



haObj_CarrierRepresentation --|> premis_Representation #blue;line.dotted;text:blue

haObj_CarrierRepresentation : bobines audio perdues : <i>xsd:boolean</i> [0..1]
haObj_CarrierRepresentation : bobines d'image perdues : <i>xsd:boolean</i> [0..1]
haObj_CarrierRepresentation : nombre de bobines : <i>xsd:nonNegativeInteger</i> [0..1]
haObj_CarrierRepresentation : nombre de bobines audio perdues : <i>xsd:nonNegativeInteger</i> [0..1]
haObj_CarrierRepresentation : nombre de bobines d'image perdues : <i>xsd:nonNegativeInteger</i> [0..1]
haObj_CarrierRepresentation : nombre de canaux audio : <i>xsd:nonNegativeInteger</i> [0..1]
haObj_CarrierRepresentation : nombre de pistes audio : <i>xsd:nonNegativeInteger</i> [0..1]
haObj_CarrierRepresentation --> haDes_AudioReel :stocké à [1..*]  > 
haObj_CarrierRepresentation --> haDes_ImageReel :stocké à [1..*]  > 
haObj_CarrierRepresentation --> haObj_PhysicalCarrier :stocké à [1..1]  > 
haObj_CarrierRepresentation --> premis_IntellectualEntity :est un copie sur porteur de [0..1]  > 



haObj_DigitalRepresentation --|> premis_Representation #blue;line.dotted;text:blue

haObj_DigitalRepresentation : en langue : <i>xsd:string</i> [0..*]
haObj_DigitalRepresentation : légende : <i>xsd:string</i> [0..1]
haObj_DigitalRepresentation : transcription : <i>xsd:string</i> [0..1]
haObj_DigitalRepresentation --> haObj_DigitalRepresentation :la représentation numérique suivante dans l'ordre [0..1]  > 
haObj_DigitalRepresentation --> premis_File :a racine [1..*]  \lcomprend [1..*]  > 
haObj_DigitalRepresentation --> premis_IntellectualEntity :est copie IIIF de [0..1]  \lest copie d'accès de [0..1]  \lest copie transcription de [0..1]  \lest maître de [0..1]  \lest mezzanine de [0..1]  > 
haObj_DigitalRepresentation --> premis_Representation :a source [0..*]  > 
haObj_DigitalRepresentation --> schema_Role :créateur [0..*]  > 


haObj_FragmentRepresentation --|> haObj_DigitalRepresentation #blue;line.dotted;text:blue

haObj_FragmentRepresentation : durée : <i>xsd:duration</i> [0..1]
haObj_FragmentRepresentation : heure de départ : <i>xsd:time</i> [1..1]
haObj_FragmentRepresentation : heure de fin : <i>xsd:time</i> [1..1]
haObj_FragmentRepresentation --> premis_File :est fragment des médias de [1..1]  > 
haObj_FragmentRepresentation --> premis_IntellectualEntity :est un fragment de [0..1]  > 



org_Role --|> skos_Concept #blue;line.dotted;text:blue

org_Role : label préféré : <i>rdf:langString</i> [1..*]


schema_Role --|> schema_Thing #blue;line.dotted;text:blue

schema_Role : nom de rôle : <i>xsd:string</i> [1..1]
schema_Role --> org_Organization :contributeur [0..1]  \lcréateur [0..1]  \léditeur [0..1]  > 
schema_Role --> schema_Person :acteur [0..1]  \lcontributeur [0..1]  \lcréateur [0..1]  \léditeur [0..1]  > 
schema_Role --> schema_Thing :contributeur [0..1]  \lcréateur [0..1]  \léditeur [0..1]  > 
schema_Role --> skos_Concept :nom de rôle [1..1]  > 



skos_ConceptScheme : exemple : <i>rdf:langString</i> [0..*]
skos_ConceptScheme : notation : <i>xsd:string</i> [0..*]
skos_ConceptScheme : note : <i>rdf:langString</i> [0..*]
skos_ConceptScheme : note d'historique : <i>rdf:langString</i> [0..*]
skos_ConceptScheme : note de champ : <i>rdf:langString</i> [0..*]
skos_ConceptScheme : note de changement : <i>rdf:langString</i> [0..*]
skos_ConceptScheme : note éditoriale : <i>rdf:langString</i> [0..*]
skos_ConceptScheme : étiquette alternative : <i>rdf:langString</i> [0..*]
skos_ConceptScheme : étiquette cachée : <i>rdf:langString</i> [0..*]
skos_ConceptScheme : étiquette préférée : <i>rdf:langString</i> [1..*]

skos_ConceptScheme --> skos_Concept :a pour concept supérieur [0..*]  > 



org_Site --> org_Organization :site de [1..*]  > 
org_Site --> schema_PostalAddress :adresse du Site [0..1]  > 

ebucore_OpenCaptions --|> ebucore_Captioning #blue;line.dotted;text:blue

ebucore_OpenCaptions : en langue : <i>xsd:string</i> [0..*]






schema_CreativeWorkSeries --|> schema_CreativeWork #blue;line.dotted;text:blue

schema_CreativeWorkSeries : description : <i>rdf:langString</i> [0..*]
schema_CreativeWorkSeries : identifier : <i>xsd:string</i> [0..1]
schema_CreativeWorkSeries : nom : <i>rdf:langString</i> [1..*]
schema_CreativeWorkSeries : numéro de saison : <i>xsd:integer</i> [0..*]
schema_CreativeWorkSeries --> premis_IntellectualEntity :fait partie de [0..*]  > 

schema_CreativeWorkSeries --> schema_CreativeWorkSeries :est partie de [0..*]  \lfait partie de [0..*]  > 



haOrg_OrganizationType --|> skos_Concept #blue;line.dotted;text:blue


org_OrganizationalUnit --|> org_Organization #blue;line.dotted;text:blue

org_OrganizationalUnit --> org_Organization :unité de [1..*]  > 

schema_QuantitativeValue --|> schema_Thing #blue;line.dotted;text:blue

schema_QuantitativeValue : code d'unité : <i>xsd:string</i> [1..1]
schema_QuantitativeValue : texte d'unité : <i>xsd:string</i> [0..1]
schema_QuantitativeValue : valeur : <i>xsd:float</i> [1..1]



haDes_Video --|> premis_IntellectualEntity #blue;line.dotted;text:blue


schema_Episode --|> schema_CreativeWork #blue;line.dotted;text:blue

schema_Episode : description : <i>rdf:langString</i> [0..*]
schema_Episode : identifier : <i>xsd:string</i> [1..1]
schema_Episode : nom : <i>rdf:langString</i> [1..*]
schema_Episode --> premis_IntellectualEntity :fait partie de [0..*]  > 




skosxl_Label : forme littérale : <i>rdf:langString</i> [1..1]


premis_Event --|> prov_Activity #blue;line.dotted;text:blue

premis_Event : a une note : <i>xsd:string</i> [0..1]
premis_Event : a une note de résultat : <i>xsd:string</i> [0..1]
premis_Event --> org_Organization :implementé par [1..1]  > 
premis_Event --> premis_HardwareAgent :instrument [0..*]  > 
premis_Event --> premis_Object :a une source [0..*]  \lrésultat [0..*]  > 
premis_Event --> premis_OutcomeStatus :a résultat [0..1]  > 
premis_Event --> premis_SoftwareAgent :exécuté par [0..1]  > 



hide circle
hide methods
hide empty members
@enduml


