@startuml
!theme vibrant
skinparam classFontSize 14
!define LIGHTORANGE
skinparam componentStyle uml2
skinparam wrapMessageWidth 1000
skinparam wrapWidth 1000
' skinparam ArrowColor #Maroon
' Remove shadows
skinparam shadowing false
'skinparam linetype polyline
skinparam ArrowMessageAlignment left
top to bottom direction


class "<b>Brand</b> (schema:Brand)" as schema_Brand [[#schema%3ABrand]]
class "<b>Activité</b> (prov:Activity)" as prov_Activity [[#prov%3AActivity]]
class "<b>Logiciel acteur</b> (premis:SoftwareAgent)" as premis_SoftwareAgent [[#premis%3ASoftwareAgent]]
class "<b>Acteur</b> (premis:Agent)" as premis_Agent [[#premis%3AAgent]]
class "<b>Matériel acteur</b> (premis:HardwareAgent)" as premis_HardwareAgent [[#premis%3AHardwareAgent]]
class "<b>Acteur</b> (premis:Agent)" as premis_Agent [[#premis%3AAgent]]
class "<b>Objet</b> (premis:Object)" as premis_Object [[#premis%3AObject]]
class "<b>Entité</b> (prov:Entity)" as prov_Entity [[#prov%3AEntity]]
class "<b>Organisation</b> (org:Organization)" as org_Organization [[../../organizations/fr#org%3AOrganization]]
class "<b>Personne</b> (schema:Person)" as schema_Person [[../../organizations/fr#schema%3APerson]]
class "<b>Chose</b> (schema:Thing)" as schema_Thing [[#schema%3AThing]]
class "<b>Statut de résultat</b> (premis:OutcomeStatus)" as premis_OutcomeStatus [[#premis%3AOutcomeStatus]]
class "<b>Événement</b> (premis:Event)" as premis_Event [[#premis%3AEvent]]
class "<b>Activité</b> (prov:Activity)" as prov_Activity [[#prov%3AActivity]]


schema_Brand : nom : <i>rdf:langString</i> [1..*]



prov_Activity : a date de début : <i>xsd:dateTime</i> [1..1]
prov_Activity : a date de fin : <i>xsd:dateTime</i> [1..1]
prov_Activity : a généré : <i>IRI</i> [0..1]

prov_Activity --> org_Organization :a été associé à [0..*]  > 
prov_Activity --> premis_HardwareAgent :a été associé à [0..*]  > 
prov_Activity --> premis_SoftwareAgent :a été associé à [0..*]  > 
prov_Activity --> schema_Person :a été associé à [0..*]  > 


premis_SoftwareAgent --|> premis_Agent #blue;line.dotted;text:blue

premis_SoftwareAgent : modèle : <i>xsd:string</i> [0..1]
premis_SoftwareAgent : nom : <i>rdf:langString</i> [1..*]
premis_SoftwareAgent : numéro de série : <i>xsd:string</i> [0..1]
premis_SoftwareAgent : version : <i>xsd:string</i> [0..1]

premis_SoftwareAgent --> schema_Brand :marque [0..1]  > 


premis_HardwareAgent --|> premis_Agent #blue;line.dotted;text:blue

premis_HardwareAgent : modèle : <i>xsd:string</i> [0..1]
premis_HardwareAgent : nom : <i>rdf:langString</i> [1..*]
premis_HardwareAgent : numéro de série : <i>xsd:string</i> [0..1]
premis_HardwareAgent : version : <i>xsd:string</i> [0..1]

premis_HardwareAgent --> schema_Brand :marque [0..1]  > 


premis_Object --|> prov_Entity #blue;line.dotted;text:blue

premis_Object --> premis_Event :généré par [0..1]  > 



schema_Person --|> schema_Thing #blue;line.dotted;text:blue




premis_Event --|> prov_Activity #blue;line.dotted;text:blue

premis_Event : a une note : <i>xsd:string</i> [0..1]
premis_Event : a une note de résultat : <i>xsd:string</i> [0..1]
premis_Event --> org_Organization :implementé par [1..1]  > 
premis_Event --> premis_HardwareAgent :instrument [0..*]  > 
premis_Event --> premis_Object :a une source [0..*]  \lrésultat [0..*]  > 
premis_Event --> premis_OutcomeStatus :a résultat [0..1]  > 
premis_Event --> premis_SoftwareAgent :exécuté par [0..1]  > 



hide circle
hide methods
hide empty members
@enduml


